<?xml version="1.0" encoding="utf-8"?>
<!-- Generator: Adobe Illustrator 19.0.0, SVG Export Plug-In . SVG Version: 6.00 Build 0)  -->
<svg version="1.1" id="Warstwa_1" xmlns="http://www.w3.org/2000/svg" xmlns:xlink="http://www.w3.org/1999/xlink" x="0px" y="0px"
	 viewBox="-471 123.5 15.5 15.5" style="enable-background:new -471 123.5 15.5 15.5;" xml:space="preserve">
<style type="text/css">
	.st0{fill:#FFFFFF;}
</style>
<path class="st0" d="M-587.8,116.3h-12.7c-0.7,0-1.3,0.6-1.3,1.2c0,0.7,0.6,1.3,1.3,1.3h12.7c0.7,0,1.3-0.6,1.3-1.3
	S-587.1,116.3-587.8,116.3z"/>
<path class="st0" d="M-587.8,110.3h-12.7c-0.7,0-1.3,0.6-1.3,1.3s0.6,1.3,1.3,1.2h12.7c0.7,0,1.3-0.6,1.3-1.2
	C-586.5,110.9-587.1,110.3-587.8,110.3z"/>
<path class="st0" d="M-587.8,104.2h-12.7c-0.7,0-1.3,0.6-1.3,1.3c0,0.7,0.6,1.3,1.3,1.2h12.7c0.7,0,1.3-0.6,1.3-1.2
	C-586.5,104.8-587.1,104.3-587.8,104.2z"/>
<path class="st0" d="M-456.9,130.3h-12.7c-0.7,0-1.3,0.4-1.3,0.9c0,0.5,0.6,0.9,1.3,0.9h12.7c0.7,0,1.3-0.4,1.3-0.9
	C-455.6,130.8-456.2,130.3-456.9,130.3z"/>
<path class="st0" d="M-456.9,137.1h-12.7c-0.7,0-1.3,0.4-1.3,0.9s0.6,0.9,1.3,0.9h12.7c0.7,0,1.3-0.4,1.3-0.9
	C-455.6,137.5-456.2,137.1-456.9,137.1z"/>
<path class="st0" d="M-456.9,123.8h-12.7c-0.7,0-1.3,0.4-1.3,0.9c0,0.5,0.6,0.9,1.3,0.9h12.7c0.7,0,1.3-0.4,1.3-0.9
	C-455.6,124.2-456.2,123.8-456.9,123.8z"/>
</svg>
