<?xml version="1.0" encoding="utf-8"?>
<!-- Generator: Adobe Illustrator 19.0.0, SVG Export Plug-In . SVG Version: 6.00 Build 0)  -->
<svg version="1.1" id="Warstwa_1" xmlns="http://www.w3.org/2000/svg" xmlns:xlink="http://www.w3.org/1999/xlink" x="0px" y="0px"
	 viewBox="-471 123.5 15.5 15.5" style="enable-background:new -471 123.5 15.5 15.5;" xml:space="preserve">
<path d="M-459.8,133.8h-7c-0.4,0-0.7,0.3-0.7,0.7c0,0.4,0.3,0.7,0.7,0.7h7c0.4,0,0.7-0.3,0.7-0.7
	C-459,134.2-459.4,133.8-459.8,133.8z"/>
<path d="M-459.8,130.6h-7c-0.4,0-0.7,0.3-0.7,0.7c0,0.4,0.3,0.7,0.7,0.7h7c0.4,0,0.7-0.3,0.7-0.7
	C-459.1,130.9-459.4,130.6-459.8,130.6z"/>
<path d="M-459.8,127.3h-7c-0.4,0-0.7,0.3-0.7,0.7c0,0.4,0.3,0.7,0.7,0.7h7c0.4,0,0.7-0.3,0.7-0.7
	C-459.1,127.6-459.4,127.3-459.8,127.3z"/>
</svg>
