<?xml version="1.0" encoding="utf-8"?>
<!-- Generator: Adobe Illustrator 19.0.0, SVG Export Plug-In . SVG Version: 6.00 Build 0)  -->
<svg version="1.1" id="Warstwa_1" xmlns="http://www.w3.org/2000/svg" xmlns:xlink="http://www.w3.org/1999/xlink" x="0px" y="0px"
	 viewBox="-471 123.5 15.5 15.5" style="enable-background:new -471 123.5 15.5 15.5;" xml:space="preserve">
<style type="text/css">
	.st0{fill:#FFFFFF;}
</style>
<path class="st0" d="M-456.9,136h-12.7c-0.7,0-1.3,0.6-1.3,1.2c0,0.7,0.6,1.3,1.3,1.3h12.7c0.7,0,1.3-0.6,1.3-1.3
	C-455.6,136.5-456.2,136-456.9,136z"/>
<path class="st0" d="M-456.9,130h-12.7c-0.7,0-1.3,0.6-1.3,1.3s0.6,1.3,1.3,1.2h12.7c0.7,0,1.3-0.6,1.3-1.2
	C-455.6,130.6-456.2,130-456.9,130z"/>
<path class="st0" d="M-456.9,123.9h-12.7c-0.7,0-1.3,0.6-1.3,1.3c0,0.7,0.6,1.3,1.3,1.2h12.7c0.7,0,1.3-0.6,1.3-1.2
	C-455.6,124.5-456.2,124-456.9,123.9z"/>
</svg>
